name rise44.8762peak52.3436fall86.788.mot
datacolumns 19
datarows 12
range 11.39495500000000 11.41328700000000
endheader
time	ground_force1_vx	ground_force1_vy	ground_force1_vz	ground_force1_px	ground_force1_py	ground_force1_pz	ground_force2_vx	ground_force2_vy	ground_force2_vz	ground_force2_px	ground_force2_py	ground_force2_pz	ground_torque1_x	ground_torque1_y	ground_torque1_z	ground_torque2_x	ground_torque2_y	ground_torque2_z	
11.39495500000000	61.80319800000000	781.13763700000004	60.33932200000000	0.27458900000000	0.00000000000000	0.12329700000000	0.00000000000000	0.00000000000000	0.00000000000000	0.00000000000000	0.00000000000000	0.00000000000000	0.00000000000000	16.96485900000000	0.00000000000000	0.00000000000000	0.00000000000000	0.00000000000000	
11.39663400000000	61.06173600000000	782.87450000000001	60.25750600000000	0.27380900000000	0.00000000000000	0.12322800000000	0.00000000000000	0.00000000000000	0.00000000000000	0.00000000000000	0.00000000000000	0.00000000000000	0.00000000000000	16.95385600000000	0.00000000000000	0.00000000000000	0.00000000000000	0.00000000000000	
11.39828900000000	60.32411100000000	784.47903199999996	60.17371900000000	0.27304500000000	0.00000000000000	0.12316000000000	0.00000000000000	0.00000000000000	0.00000000000000	0.00000000000000	0.00000000000000	0.00000000000000	0.00000000000000	16.94314500000000	0.00000000000000	0.00000000000000	0.00000000000000	0.00000000000000	
11.39995500000000	59.59059900000000	785.94966299999999	60.08810100000000	0.27229400000000	0.00000000000000	0.12309500000000	0.00000000000000	0.00000000000000	0.00000000000000	0.00000000000000	0.00000000000000	0.00000000000000	0.00000000000000	16.93271600000000	0.00000000000000	0.00000000000000	0.00000000000000	0.00000000000000	
11.40163400000000	58.86140100000000	787.28501400000005	60.00072800000000	0.27155300000000	0.00000000000000	0.12303000000000	0.00000000000000	0.00000000000000	0.00000000000000	0.00000000000000	0.00000000000000	0.00000000000000	0.00000000000000	16.92252700000000	0.00000000000000	0.00000000000000	0.00000000000000	0.00000000000000	
11.40328900000000	58.13665300000000	788.48391300000003	59.91160900000000	0.27082000000000	0.00000000000000	0.12296700000000	0.00000000000000	0.00000000000000	0.00000000000000	0.00000000000000	0.00000000000000	0.00000000000000	0.00000000000000	16.91251000000000	0.00000000000000	0.00000000000000	0.00000000000000	0.00000000000000	
11.40495700000000	57.41642600000000	789.54540599999996	59.82069600000000	0.27009400000000	0.00000000000000	0.12290600000000	0.00000000000000	0.00000000000000	0.00000000000000	0.00000000000000	0.00000000000000	0.00000000000000	0.00000000000000	16.90257400000000	0.00000000000000	0.00000000000000	0.00000000000000	0.00000000000000	
11.40663100000000	56.70073400000000	790.46876699999996	59.72788600000000	0.26937000000000	0.00000000000000	0.12284700000000	0.00000000000000	0.00000000000000	0.00000000000000	0.00000000000000	0.00000000000000	0.00000000000000	0.00000000000000	16.89260400000000	0.00000000000000	0.00000000000000	0.00000000000000	0.00000000000000	
11.40829200000000	55.98954000000000	791.25351499999999	59.63302600000000	0.26864800000000	0.00000000000000	0.12278900000000	0.00000000000000	0.00000000000000	0.00000000000000	0.00000000000000	0.00000000000000	0.00000000000000	0.00000000000000	16.88246600000000	0.00000000000000	0.00000000000000	0.00000000000000	0.00000000000000	
11.40995300000000	55.28275900000000	791.89941799999997	59.53592000000000	0.26792500000000	0.00000000000000	0.12273400000000	0.00000000000000	0.00000000000000	0.00000000000000	0.00000000000000	0.00000000000000	0.00000000000000	0.00000000000000	16.87200600000000	0.00000000000000	0.00000000000000	0.00000000000000	0.00000000000000	
11.41162200000000	54.58026600000000	792.40650000000005	59.43632900000000	0.26719800000000	0.00000000000000	0.12268000000000	0.00000000000000	0.00000000000000	0.00000000000000	0.00000000000000	0.00000000000000	0.00000000000000	0.00000000000000	16.86105800000000	0.00000000000000	0.00000000000000	0.00000000000000	0.00000000000000	
11.41328700000000	53.88189800000000	792.77505299999996	59.33398300000000	0.26646500000000	0.00000000000000	0.12262800000000	0.00000000000000	0.00000000000000	0.00000000000000	0.00000000000000	0.00000000000000	0.00000000000000	0.00000000000000	16.84944100000000	0.00000000000000	0.00000000000000	0.00000000000000	0.00000000000000	
